# AST/ASF file generated using VICON BodyLanguage
# -----------------------------------------------
:version 1.10
:name VICON
:units
  mass 1.0
  length 0.45
  angle deg
:documentation
   .ast/.asf automatically generated from VICON data using
   VICON BodyBuilder and BodyLanguage model FoxedUp or BRILLIANT.MOD
:root
   order TX TY TZ RX RY RZ
   axis XYZ
   position 0 0 0  
   orientation 0 0 0 
:bonedata
  begin
     id 1 
     name lhipjoint
     direction 0.589753 -0.68606 0.426044 
     length 2.54082 
     axis 0 0 0  XYZ
  end
  begin
     id 2 
     name lfemur
     direction 0.34202 -0.939693 0  
     length 7.04539  
     axis 0 0 20  XYZ
    dof rx ry rz
    limits (-160.0 20.0)
           (-70.0 70.0)
           (-60.0 70.0)
  end
  begin
     id 3 
     name ltibia
     direction 0.34202 -0.939693 0   
     length 7.83772   
     axis 0 0 20   XYZ
    dof rx
    limits (-10.0 170.0)
  end
  begin
     id 4 
     name lfoot
     direction 0.0596604 -0.163915 0.984669   
     length 2.39542   
     axis -90 7.62852e-016 20   XYZ
    dof rx rz
    limits (-45.0 90.0)
           (-70.0 20.0)
  end
  begin
     id 5 
     name ltoes
     direction 1.53514e-011 -4.21954e-011 1   
     length 1.2047   
     axis -90 7.62852e-016 20   XYZ
    dof rx
    limits (-90.0 20.0)
  end
  begin
     id 6 
     name rhipjoint
     direction -0.580585 -0.69168 0.429534   
     length 2.52018  
     axis 0 0 0  XYZ 
  end
  begin
     id 7 
     name rfemur
     direction -0.34202 -0.939693 0   
     length 7.0101   
     axis 0 0 -20   XYZ
    dof rx ry rz
    limits (-160.0 20.0)
           (-70.0 70.0)
           (-70.0 60.0)
  end
  begin
     id 8 
     name rtibia
     direction -0.34202 -0.939693 0   
     length 7.70628   
     axis 0 0 -20   XYZ
    dof rx
    limits (-10.0 170.0)
 end
 begin
     id 9 
     name rfoot
     direction -0.0696237 -0.19129 0.979061   
     length 2.52466  
     axis -90 -7.62852e-016 -20   XYZ
    dof rx rz
    limits (-45.0 90.0)
           (-20.0 70.0)
  end
  begin
     id 10 
     name rtoes
     direction -1.53519e-011 -4.21793e-011 1   
     length 1.266   
     axis -90 -7.62852e-016 -20   XYZ
    dof rx
    limits (-90.0 20.0)
  end
  begin
     id 11 
     name lowerback
     direction 0.00381965 0.995707 -0.0924856   
     length 2.20825   
     axis 0 0 0   XYZ
    dof rx ry rz
    limits (-20.0 45.0)
           (-30.0 30.0)
           (-30.0 30.0)
  end
  begin
     id 12 
     name upperback
     direction -0.0139043 0.999634 -0.0231929   
     length 2.21517   
     axis 0 0 0   XYZ
    dof rx ry rz
    limits (-20.0 45.0)
           (-30.0 30.0)
           (-30.0 30.0)
  end
  begin
     id 13 
     name thorax
     direction -0.0143933 0.999691 0.0202892   
     length 2.22911   
     axis 0 0 0   XYZ
    dof rx ry rz
    limits (-20.0 45.0)
           (-30.0 30.0)
           (-30.0 30.0)
  end
  begin
     id 14 
     name lowerneck
     direction -0.0251153 0.981819 0.188153   
     length 1.61782   
     axis 0 0 0   XYZ
    dof rx ry rz
    limits (-20.0 45.0)
           (-30.0 30.0)
           (-30.0 30.0)
  end
  begin
     id 15 
     name upperneck
     direction 0.0563891 0.969357 -0.239095   
     length 1.64526   
     axis 0 0 0   XYZ
    dof rx ry rz
    limits (-20.0 45.0)
           (-30.0 30.0)
           (-30.0 30.0)
  end
  begin
     id 16
     name head
     direction 0.0208328 0.99459 -0.101773  
     length 1.67436  
     axis 0 0 0   XYZ
    dof rx ry rz
    limits (-20.0 45.0)
           (-30.0 30.0)
           (-30.0 30.0)
  end
  begin
     id 17 
     name lclavicle
     direction 0.917689 0.397224 0.00772059  
     length 3.31102  
     axis 0 0 0   XYZ
    dof ry rz
    limits (-20.0 10.0)
           (0.0 20.0)
  end
  begin
     id 18 
     name lhumerus
     direction 1 -4.4896e-011 2.32308e-027   
     length 5.25537   
     axis 180 -30 -90   XYZ
    dof rx ry rz
    limits (-60.0 90.0)
           (-90.0 90.0)
           (-90.0 90.0)
  end
  begin
     id 19
     name lradius
     direction 1 -4.49005e-011 -2.04271e-027   
     length 3.38855   
     axis 180 -30 -90   XYZ
    dof rx
    limits (-10.0 170.0)
  end
  begin
     id 20
     name lwrist
     direction 1 -4.48892e-011 2.56952e-028   
     length 1.69428   
     axis -5.12785e-016 90 90   XYZ
    dof ry
    limits (-180.0 0.0)
 end
  begin
     id 21 
     name lhand
     direction 1 -4.48966e-011 5.13905e-028   
     length 0.614516   
     axis -3.27915e-016 90 90   XYZ
    dof rx rz
    limits (-90.0 90.0)
           (-45.0 45.0)
  end
  begin
     id 22 
     name lfingers
     direction 1 -4.48979e-011 1.02781e-027   
     length 0.495439   
     axis -6.5583e-016 90 90   XYZ
    dof rx
    limits (0.0 90.0)
  end
  begin
     id 23
     name lthumb
     direction 0.707107 -6.35001e-011 0.707107   
     length 0.711354   
     axis -90 45 2.85299e-015   XYZ
    dof rx rz
    limits (-45.0 45.0)
           (-45.0 45.0)
  end
  begin
     id 24 
     name rclavicle
     direction -0.938556 0.342765 -0.0403177   
     length 3.27019  
     axis 0 0 0   XYZ 
    dof ry rz
    limits (-10.0 20.0)
           (-20.0 0.0)
  end
  begin
     id 25 
     name rhumerus
     direction -1 -4.48966e-011 2.52291e-027  
     length 5.38183   
     axis 180 30 90   XYZ
    dof rx ry rz
    limits (-90.0 60.0)
           (-90.0 90.0)
           (-90.0 90.0)
  end
  begin
     id 26 
     name rradius
     direction -1 -4.4896e-011 1.5797e-027   
     length 3.16988   
     axis 180 30 90   XYZ
    dof rx
    limits (-10.0 170.0)
  end
  begin
     id 27 
     name rwrist
     direction -1 -4.48947e-011 2.56952e-028   
     length 1.58494   
     axis -5.12785e-016 -90 -90   XYZ
    dof ry
    limits (-180.0 0.0)
  end
  begin
     id 28
     name rhand
     direction -1 -4.49098e-011 5.13905e-028   
     length 0.637679   
     axis -3.27915e-016 -90 -90   XYZ
    dof rx rz
    limits (-90.0 90.0)
           (-45.0 45.0)
  end
  begin
     id 29
     name rfingers
     direction -1 -4.49026e-011 1.02781e-027   
     length 0.514113   
     axis -6.5583e-016 -90 -90   XYZ
    dof rx
    limits (0.0 90.0)
  end
  begin
     id 30
     name rthumb
     direction -0.707107 -6.3491e-011 0.707107   
     length 0.738167   
     axis -90 -45 -2.85299e-015   XYZ
    dof rx rz
    limits (-45.0 45.0)
           (-45.0 45.0)
  end
:hierarchy
  begin
    root lhipjoint rhipjoint lowerback
    lhipjoint lfemur
    lfemur ltibia
    ltibia lfoot
    lfoot ltoes
    rhipjoint rfemur
    rfemur rtibia
    rtibia rfoot
    rfoot rtoes
    lowerback upperback
    upperback thorax
    thorax lowerneck lclavicle rclavicle
    lowerneck upperneck
    upperneck head
    lclavicle lhumerus
    lhumerus lradius
    lradius lwrist
    lwrist lhand lthumb
    lhand lfingers
    rclavicle rhumerus
    rhumerus rradius
    rradius rwrist
    rwrist rhand rthumb
    rhand rfingers
  end

#!OML:ASF H:\Swim\Project 1\Capture day 1\Session 1\swimmer.ASF
:FULLY-SPECIFIED
:DEGREES
300
root 7.95525 15.4845 29.759 -177.251 -8.30805 178.4
lowerback 11.1078 -0.603587 0.874516
upperback 3.67004 -1.09496 -1.45126
thorax -2.44113 -0.683904 -1.84994
lowerneck -31.325 -1.48623 -5.05424
upperneck 17.2149 -1.82765 7.60851
head 10.7445 -0.198485 3.29859
rclavicle 3.47873e-015 -1.03368e-014
rhumerus 38.4471 -13.7974 -60.6126
rradius 71.8514
rwrist 7.7818
rhand 42.8944 -6.84385
rfingers 7.12502
rthumb 64.7467 -14.4369
lclavicle 3.47873e-015 -1.03368e-014
lhumerus 35.2894 8.95056 51.1559
lradius 76.3953
lwrist -6.9124
lhand 44.021 11.9827
lfingers 7.12502
lthumb 65.6326 18.0699
rfemur -26.079 -14.628 5.82329
rtibia 52.7842
rfoot -19.5142 -17.4314
rtoes -11.6035
lfemur -31.3274 3.68018 -11.4138
ltibia 54.42
lfoot -19.9447 7.44978
ltoes -11.224
301
root 7.95578 15.4815 29.7577 -177.246 -8.30649 178.402
lowerback 11.1128 -0.605047 0.863735
upperback 3.66736 -1.09789 -1.44994
thorax -2.44655 -0.685371 -1.84202
lowerneck -31.3373 -1.53842 -5.10231
upperneck 17.1502 -1.88408 7.64309
head 10.7276 -0.223798 3.30789
rclavicle 1.22253e-014 -1.66979e-014
rhumerus 38.4508 -13.7888 -60.6364
rradius 71.8633
rwrist 7.77991
rhand 42.9119 -6.82729
rfingers 7.12502
rthumb 64.7606 -14.3977
lclavicle 1.22253e-014 -1.66979e-014
lhumerus 35.2795 8.96883 51.1677
lradius 76.4087
lwrist -6.91905
lhand 43.9965 11.9927
lfingers 7.12502
lthumb 65.6136 18.1138
rfemur -26.1084 -14.6445 5.82557
rtibia 52.8341
rfoot -19.5207 -17.4338
rtoes -11.6699
lfemur -31.3499 3.68332 -11.4066
ltibia 54.4615
lfoot -19.9705 7.44986
ltoes -11.2133
302
root 7.95627 15.4785 29.7562 -177.242 -8.30532 178.401
lowerback 11.1169 -0.605247 0.850029
upperback 3.66472 -1.09944 -1.44832
thorax -2.45136 -0.686153 -1.83233
lowerneck -31.3497 -1.5866 -5.14986
upperneck 17.0904 -1.93517 7.67689
head 10.7122 -0.246687 3.31789
rclavicle 3.97569e-016 -4.37326e-015
rhumerus 38.4459 -13.7809 -60.6595
rradius 71.8749
rwrist 7.77558
rhand 42.9139 -6.80963
rfingers 7.12502
rthumb 64.7622 -14.3775
lclavicle 3.97569e-016 -4.37326e-015
lhumerus 35.2667 8.98301 51.1869
lradius 76.4216
lwrist -6.92564
lhand 43.9818 12.0134
lfingers 7.12502
lthumb 65.6021 18.1548
rfemur -26.1347 -14.6604 5.82459
rtibia 52.8815
rfoot -19.5253 -17.4372
rtoes -11.7319
lfemur -31.3689 3.68453 -11.4021
ltibia 54.5001
lfoot -19.9963 7.45041
ltoes -11.1985
303
root 7.95676 15.4759 29.7547 -177.24 -8.30493 178.4
lowerback 11.1197 -0.604621 0.836437
upperback 3.66192 -1.09984 -1.44674
thorax -2.45559 -0.686334 -1.82291
lowerneck -31.3617 -1.63183 -5.19477
upperneck 17.0338 -1.98309 7.70909
head 10.6977 -0.268133 3.32748
rclavicle -6.11263e-015 -1.66979e-014
rhumerus 38.4331 -13.7729 -60.6856
rradius 71.8843
rwrist 7.77225
rhand 42.9036 -6.79059
rfingers 7.12502
rthumb 64.754 -14.3717
lclavicle -6.11263e-015 -1.66979e-014
lhumerus 35.2511 8.99263 51.212
lradius 76.4332
lwrist -6.92714
lhand 43.9883 12.0563
lfingers 7.12502
lthumb 65.6072 18.1888
rfemur -26.1573 -14.6743 5.82375
rtibia 52.9246
rfoot -19.527 -17.4446
rtoes -11.802
lfemur -31.3847 3.68366 -11.3975
ltibia 54.5343
lfoot -20.0155 7.45401
ltoes -11.1998
304
root 7.95719 15.4737 29.7531 -177.236 -8.30506 178.396
lowerback 11.1206 -0.604105 0.819479
upperback 3.65826 -1.10068 -1.44598
thorax -2.45966 -0.686701 -1.81239
lowerneck -31.3729 -1.67436 -5.24022
upperneck 16.9795 -2.02748 7.74241
head 10.6837 -0.287849 3.33826
rclavicle -3.67752e-015 -1.39149e-015
rhumerus 38.4149 -13.7616 -60.7151
rradius 71.8917
rwrist 7.77135
rhand 42.8882 -6.77768
rfingers 7.12502
rthumb 64.7418 -14.3787
lclavicle -3.67752e-015 -1.39149e-015
lhumerus 35.2291 9.00085 51.2425
lradius 76.4453
lwrist -6.92883
lhand 44.0109 12.1109
lfingers 7.12502
lthumb 65.6247 18.2121
rfemur -26.177 -14.6863 5.81839
rtibia 52.9628
rfoot -19.5281 -17.4519
rtoes -11.869
lfemur -31.3982 3.6803 -11.3977
ltibia 54.5635
lfoot -20.0318 7.45895
ltoes -11.196
305
root 7.9576 15.4719 29.7513 -177.231 -8.3059 178.389
lowerback 11.1186 -0.603359 0.802516
upperback 3.654 -1.10118 -1.44685
thorax -2.46281 -0.686845 -1.80365
lowerneck -31.385 -1.7133 -5.27955
upperneck 16.9291 -2.06869 7.77148
head 10.671 -0.306188 3.34713
rclavicle 1.30204e-014 1.98785e-016
rhumerus 38.3884 -13.7494 -60.7477
rradius 71.8991
rwrist 7.77695
rhand 42.8895 -6.77502
rfingers 7.12502
rthumb 64.7428 -14.3743
lclavicle 1.30204e-014 1.98785e-016
lhumerus 35.2043 9.00641 51.2792
lradius 76.4575
lwrist -6.92927
lhand 44.0473 12.1728
lfingers 7.12502
lthumb 65.653 18.2235
rfemur -26.1927 -14.6965 5.81129
rtibia 52.9949
rfoot -19.5336 -17.4564
rtoes -11.9209
lfemur -31.4095 3.6763 -11.4005
ltibia 54.5871
lfoot -20.0439 7.46482
ltoes -11.1979
306
root 7.95798 15.4705 29.7495 -177.226 -8.3081 178.383
lowerback 11.1124 -0.603522 0.787092
upperback 3.65011 -1.10269 -1.44829
thorax -2.46329 -0.687442 -1.7963
lowerneck -31.3922 -1.74987 -5.31631
upperneck 16.8763 -2.10793 7.80065
head 10.6565 -0.323569 3.35583
rclavicle -1.49089e-015 -2.14687e-014
rhumerus 38.359 -13.7351 -60.7837
rradius 71.9055
rwrist 7.78627
rhand 42.9223 -6.7676
rfingers 7.12502
rthumb 64.7688 -14.3247
lclavicle -1.49089e-015 -2.14687e-014
lhumerus 35.1758 9.01242 51.3198
lradius 76.4699
lwrist -6.92794
lhand 44.0951 12.2207
lfingers 7.12502
lthumb 65.6902 18.205
rfemur -26.2037 -14.7052 5.80503
rtibia 53.0198
rfoot -19.539 -17.4613
rtoes -11.9675
lfemur -31.4183 3.67103 -11.4033
ltibia 54.605
lfoot -20.0541 7.46893
ltoes -11.1968
307
root 7.95836 15.4696 29.7475 -177.22 -8.31096 178.379
lowerback 11.1041 -0.603937 0.773926
upperback 3.6455 -1.10416 -1.44993
thorax -2.46345 -0.687966 -1.79045
lowerneck -31.397 -1.78557 -5.3507
upperneck 16.8242 -2.14712 7.82964
head 10.6418 -0.340835 3.36409
rclavicle -9.0944e-015 -9.74045e-015
rhumerus 38.3237 -13.7188 -60.8208
rradius 71.9115
rwrist 7.80237
rhand 42.9802 -6.75795
rfingers 7.12502
rthumb 64.8148 -14.2402
lclavicle -9.0944e-015 -9.74045e-015
lhumerus 35.1449 9.0176 51.3641
lradius 76.4822
lwrist -6.93034
lhand 44.1263 12.2332
lfingers 7.12502
lthumb 65.7144 18.1738
rfemur -26.21 -14.7122 5.80121
rtibia 53.0366
rfoot -19.5467 -17.4643
rtoes -12.0047
lfemur -31.4244 3.66637 -11.4047
ltibia 54.6164
lfoot -20.0618 7.47258
ltoes -11.1979
308
root 7.95872 15.4692 29.7454 -177.215 -8.31528 178.378
lowerback 11.0962 -0.605286 0.764731
upperback 3.63952 -1.10627 -1.45123
thorax -2.46528 -0.688748 -1.7864
lowerneck -31.3961 -1.82135 -5.38747
upperneck 16.771 -2.18697 7.86395
head 10.626 -0.358014 3.37452
rclavicle -1.31198e-014 2.98177e-015
rhumerus 38.282 -13.6996 -60.8559
rradius 71.9161
rwrist 7.82461
rhand 43.0651 -6.73568
rfingers 7.12502
rthumb 64.8821 -14.1077
lclavicle -1.31198e-014 2.98177e-015
lhumerus 35.1089 9.02029 51.4099
lradius 76.4943
lwrist -6.93232
lhand 44.1486 12.2082
lfingers 7.12502
lthumb 65.7318 18.1176
rfemur -26.2087 -14.7176 5.80092
rtibia 53.0442
rfoot -19.5557 -17.4675
rtoes -12.0273
lfemur -31.4253 3.66185 -11.403
ltibia 54.621
lfoot -20.0684 7.47447
ltoes -11.1977
309
root 7.95907 15.4693 29.7431 -177.21 -8.32026 178.38
lowerback 11.088 -0.607702 0.758606
upperback 3.63385 -1.10947 -1.45245
thorax -2.46678 -0.69007 -1.78385
lowerneck -31.3968 -1.85781 -5.42493
upperneck 16.7195 -2.2284 7.90165
head 10.6114 -0.37552 3.3861
rclavicle -1.83876e-015 9.54166e-015
rhumerus 38.2387 -13.6773 -60.8929
rradius 71.9189
rwrist 7.85321
rhand 43.1559 -6.7031
rfingers 7.12502
rthumb 64.954 -13.9564
lclavicle -1.83876e-015 9.54166e-015
lhumerus 35.0699 9.02242 51.4543
lradius 76.5067
lwrist -6.93756
lhand 44.1562 12.1637
lfingers 7.12502
lthumb 65.7377 18.0625
rfemur -26.2007 -14.7217 5.80385
rtibia 53.0419
rfoot -19.5605 -17.4733
rtoes -12.0515
lfemur -31.4202 3.65756 -11.3988
ltibia 54.6176
lfoot -20.0712 7.47576
ltoes -11.2112
